<svg id="New_Layer" data-name="New Layer" xmlns="http://www.w3.org/2000/svg" width="823.5293" height="1049" viewBox="0 0 823.5293 1049"><defs><style>.cls-1{fill:#fff;stroke:#fff;stroke-miterlimit:10;stroke-width:8px;fill-rule:evenodd;}</style></defs><path class="cls-1" d="M596.5006,25.98c-64.1191,3.5621-116.6018,24.84-155.7383,63.1217-17.7158,17.3359-30.6822,34.9568-42.7935,58.0872-15.1987,29.1149-25.9327,65.9715-29.1624,99.8359-.285,2.6123-2.09,179.7711-4.0371,393.7391-1.9473,213.92-3.6572,393.454-3.7522,398.9635a109.2408,109.2408,0,0,0,.2375,12.5864,17.3238,17.3238,0,0,0,9.0242,12.3964c2.66,1.4248,3.4672,1.6148,7.5043,1.7573,5.842.2375,8.9292-.8074,12.5388-4.3221,1.9-1.8523,24.65-35.7642,87.4871-130.4706,46.7357-70.3886,94.0889-141.7746,105.25-158.588,11.1614-16.861,20.2331-30.6822,20.1856-30.7772-.095-.0475-13.2988,4.37-29.3523,9.8316s-29.3523,9.9266-29.5423,9.8316c-.2375-.0475,41.6537-55.9974,93.044-124.2962,51.3428-68.2987,93.8039-125.1035,94.3264-126.1959a17.4372,17.4372,0,0,0-4.2271-20.5657,17.2116,17.2116,0,0,0-14.7712-4.2746,21.3379,21.3379,0,0,0-9.4516,4.8921c-1.2824,1.3774-256.1916,340.1164-256.5241,340.8764-.0475.19,15.5311-4.9871,34.6243-11.494s34.8144-11.7314,34.9568-11.6364c.19.19-118.2642,178.7737-119.1666,179.6286-.3324.3325-.38-6.7444-.19-23.0354.19-12.9188,1.71-177.4913,3.3722-365.7166,2.5648-288.4887,3.1347-343.4887,3.8-350.2806,2.4223-26.74,11.0665-57.5172,22.94-81.74A179.0635,179.0635,0,0,1,440.24,145.147c24.3653-37.1891,58.7046-62.1718,102.6856-74.8057,29.1624-8.3592,64.0242-11.3989,97.6511-8.5492,40.7988,3.5147,74.4732,15.9585,101.7357,37.6166,6.4594,5.13,18.7133,17.2884,23.7953,23.7,13.6313,17.0509,23.89,35.7167,31.7746,57.9447a270.1314,270.1314,0,0,1,15.0087,96.7487l-.19,5.6045,20.8506,12.1114c11.4464,6.6969,20.9931,12.3013,21.1831,12.4438.19.19-3.2772,4.5121-7.6943,9.5942-5.4145,6.2219-8.5968,10.259-9.5942,12.3488-1.4723,2.85-1.5673,3.42-1.5673,7.8368,0,4.2271.1425,5.0346,1.33,7.4568a18.757,18.757,0,0,0,8.3117,8.3118c2.4223,1.1874,3.1822,1.33,7.6943,1.33s5.2245-.1425,7.5993-1.33a20.5586,20.5586,0,0,0,3.8-2.3748c2.47-2.1848,45.1208-51.6753,44.8834-52.0553-.095-.2374-13.9163-8.3592-30.5872-18.0958l-30.3973-17.7159-.2375-3.3722c-.1424-1.8523-.4749-7.0293-.76-11.4464-3.1822-48.7781-18.7133-96.7962-42.8411-132.7029-40.2763-59.94-105.1554-90.7167-190.0776-90.2418-6.2694.0475-14.4387.2375-18.0959.475Z" transform="translate(-89.9688 -21.5)"/><path class="cls-1" d="M845.7579,439.3351a16.882,16.882,0,0,0-10.3541,8.8817c-2.7072,5.32-2.5647,10.2591.475,17.4309,3.2772,7.7418,6.2219,19.0458,8.0742,30.9672,1.0924,6.8394,1.4724,25.3152.7125,33.1045-5.0346,52.6252-37.4266,99.5984-95.7038,138.83-29.7323,19.9957-67.9188,38.6615-110.57,54.0976-10.4965,3.8-12.9188,5.51-15.911,11.1615-1.14,2.1848-1.2824,2.8972-1.2824,7.4093,0,4.7021.095,5.177,1.5673,8.1692a16.5313,16.5313,0,0,0,8.5018,8.1218c2.66,1.2349,3.6571,1.4249,6.9818,1.4249,4.18,0,5.177-.285,21.1831-6.317,89.3868-33.4844,153.9809-78.6053,189.1277-132.0379,29.9223-45.5483,39.2314-97.9361,26.4551-148.8989-3.1347-12.4439-7.7893-24.0328-11.114-27.69a18.7584,18.7584,0,0,0-4.8445-3.5147c-2.66-1.2823-3.7047-1.52-7.2194-1.6623A19.2055,19.2055,0,0,0,845.7579,439.3351Z" transform="translate(-89.9688 -21.5)"/><path class="cls-1" d="M330.5249,641.1442a26.62,26.62,0,0,0-3.8946,1.9c-1.14.7124-52.4353,54.4775-115.4145,120.9714C107.58,873.3505,97.6537,883.99,95.9438,887.2193l-1.8523,3.5621-.095,6.5544c-.1425,7.3619.2375,10.3066,1.7573,13.4413,3.0873,6.3644,10.829,10.5915,17.7159,9.6891,1.33-.19,52.91-18.3808,114.702-40.4188,61.7919-22.0855,113.3722-40.5138,114.7021-40.9887l2.3748-.8075-17.5734-5.8419c-9.6891-3.1822-17.7634-5.9845-17.9534-6.1745s7.1244-3.61,16.3385-7.5993c9.1667-4.0371,17.5259-7.9792,18.5233-8.7867a17.8593,17.8593,0,0,0,6.5069-15.2936,17.3022,17.3022,0,0,0-14.5336-15.816c-4.0372-.7125-6.9819-.095-14.0588,2.9447-28.5449,12.3014-111.4248,48.6356-111.4248,48.8255,0,.1425,5.652,2.1373,12.5864,4.4171,6.9343,2.3273,12.5863,4.37,12.5863,4.5121,0,.3325-71.291,25.8377-71.5285,25.6-.095-.0475,41.7487-44.361,92.9491-98.411C332.8522,687.215,350.9955,667.8368,352.04,665.7c1.14-2.3748,1.2824-3.1347,1.2824-7.8368,0-4.7971-.095-5.4145-1.33-7.7418a17.5112,17.5112,0,0,0-7.5518-7.7418c-2.7072-1.4249-3.42-1.5673-7.5043-1.71A22.5755,22.5755,0,0,0,330.5249,641.1442Z" transform="translate(-89.9688 -21.5)"/></svg>